<svg xmlns="http://www.w3.org/2000/svg" height="24" viewBox="0 -960 960 960" width="24"><path d="M480.068-485.385q29.855 0 51.047-21.26 21.192-21.26 21.192-51.115t-21.26-51.047q-21.26-21.192-51.115-21.192t-51.047 21.26q-21.192 21.26-21.192 51.115t21.26 51.047q21.26 21.192 51.115 21.192ZM480-99.617Q329.001-230.463 253.539-343.154q-75.461-112.692-75.461-206.923 0-138.46 89.577-224.191Q357.231-859.999 480-859.999t212.345 85.731q89.577 85.731 89.577 224.191 0 94.231-75.461 206.923Q630.999-230.463 480-99.617Z"/></svg>